# xmcd
#
# Track frame offsets: 
#        150
#        17047
#        33917
#
# Disc length: 676 seconds
#
# Revision: 0
# Processed by: cddbd v1.5.2PL0 Copyright (c) Steve Scherf et al.
# Submitted via: ExactAudioCopy v0.95b4
#
DISCID=1802a203
DTITLE=Freeway - Rocafella Billionares
DYEAR=2007
DGENRE=Hip Hop
TTITLE0=Rocafella Billionares (Clean)
TTITLE1=Rocafella Billionares
TTITLE2=Rocafella Billionares (INST)
EXTD=
EXTT0=
EXTT1=
EXTT2=
PLAYORDER=
